<svg width="13" height="13" viewBox="0 0 13 13" fill="none" xmlns="http://www.w3.org/2000/svg">
<g clip-path="url(#clip0_2370_6728)">
<path d="M9.42404 7.77171C9.2659 7.69046 8.47806 7.30452 8.33152 7.25229C8.18498 7.19715 8.07762 7.17104 7.9717 7.33354C7.86433 7.49459 7.55965 7.85296 7.46389 7.96178C7.37103 8.06914 7.27672 8.0822 7.11857 8.0024C6.1784 7.53231 5.56177 7.16378 4.94224 6.10028C4.77828 5.81736 5.10619 5.83767 5.41233 5.22684C5.46456 5.11948 5.43844 5.02807 5.39782 4.94682C5.35719 4.86557 5.03799 4.07919 4.90451 3.75854C4.77538 3.4466 4.6419 3.49012 4.54469 3.48432C4.45183 3.47852 4.34592 3.47852 4.23855 3.47852C4.13119 3.47852 3.95853 3.51914 3.81199 3.67729C3.66545 3.83834 3.25195 4.22573 3.25195 5.01211C3.25195 5.79849 3.82505 6.56021 3.9034 6.66758C3.98465 6.77495 5.03074 8.38834 6.63688 9.08332C7.6525 9.52149 8.05005 9.55921 8.55786 9.48376C8.8669 9.43733 9.50384 9.09783 9.63587 8.72204C9.76791 8.34771 9.76791 8.02707 9.72873 7.96033C9.68956 7.88923 9.58219 7.84861 9.42404 7.77171Z" fill="white" fill-opacity="0.85"/>
<path d="M12.4952 3.98125C12.1673 3.20212 11.6972 2.50279 11.098 1.90212C10.5029 1.30493 9.79656 0.830232 9.01883 0.504911C8.22084 0.169754 7.37352 0 6.50008 0H6.47106C5.59182 0.00435268 4.74015 0.17846 3.93926 0.520871C3.16819 0.849529 2.46843 1.32507 1.87899 1.92098C1.28557 2.5202 0.819837 3.21663 0.497739 3.99286C0.164033 4.79665 -0.00427037 5.65123 8.23133e-05 6.53047C0.00500556 7.53807 0.243385 8.53082 0.696511 9.4308V11.6362C0.696511 11.8132 0.766827 11.9829 0.891991 12.1081C1.01715 12.2333 1.18691 12.3036 1.36392 12.3036H3.57073C4.47071 12.7567 5.46346 12.9951 6.47106 13H6.50153C7.37062 13 8.21359 12.8317 9.00723 12.5023C9.78103 12.1809 10.4848 11.7117 11.0791 11.1211C11.6783 10.5277 12.1499 9.83415 12.4792 9.06083C12.8216 8.25993 12.9957 7.40826 13.0001 6.52902C13.0044 5.64542 12.8332 4.78795 12.4952 3.98125ZM10.3029 10.3362C9.2858 11.3431 7.93647 11.8973 6.50008 11.8973H6.47542C5.60053 11.893 4.73144 11.6753 3.96392 11.2662L3.84205 11.2009H1.79919V9.15804L1.7339 9.03616C1.32475 8.26864 1.10711 7.39955 1.10276 6.52467C1.09696 5.07812 1.64975 3.72009 2.66392 2.69721C3.67665 1.67433 5.03033 1.10848 6.47687 1.10268H6.50153C7.22698 1.10268 7.93066 1.24342 8.59372 1.52199C9.24082 1.7933 9.82118 2.18359 10.3203 2.6827C10.8179 3.18036 11.2097 3.76217 11.481 4.40926C11.7625 5.07958 11.9032 5.79051 11.9003 6.52467C11.8916 7.96975 11.3243 9.32344 10.3029 10.3362Z" fill="white" fill-opacity="0.85"/>
</g>
<defs>
<clipPath id="clip0_2370_6728">
<rect width="13" height="13" fill="white"/>
</clipPath>
</defs>
</svg>
