<?xml version="1.0" encoding="UTF-8"?>
<svg width="272px" height="108px" viewBox="0 0 272 108" version="1.1" xmlns="http://www.w3.org/2000/svg" xmlns:xlink="http://www.w3.org/1999/xlink">
    <title>Group 18</title>
    <defs>
        <polygon id="path-1" points="0 0 137.699314 0 137.699314 83.8450899 0 83.8450899"></polygon>
    </defs>
    <g id="Page-1" stroke="none" stroke-width="1" fill="none" fill-rule="evenodd">
        <g id="Group-18">
            <g id="Group-7" transform="translate(0.000000, 94.000000)" fill="#231F20">
                <path d="M244.404693,13.9995393 L245.463263,11.5971636 L233.157677,11.5971636 C233.855532,9.73607101 235.19348,8.3897732 236.879177,8.3897732 L241.936267,8.3897732 C245.30766,8.3897732 247.589835,6.99395375 248.637796,4.20231485 C249.684578,1.41067595 248.451544,0.0148564942 245.08015,0.0148564942 L230.701039,0.0148564942 L229.742668,2.17653398 L239.107126,2.17653398 C240.791644,2.17653398 241.32918,3.27176855 240.979074,4.20231485 C240.630147,5.13286115 239.279232,5.92520751 237.593535,5.92520751 L232.536445,5.92520751 C229.640111,5.92520751 228.020428,6.28107237 225.909181,11.1825638 L224.658465,13.9995393 L244.404693,13.9995393 Z" id="Fill-1"></path>
                <path d="M117.263196,0.000345499864 L106.906181,0.000345499864 C103.874284,0.000345499864 101.289156,0.609576927 99.1625851,1.81997812 C97.0360138,3.03037931 95.5023834,4.73254197 94.5699455,6.91610112 C93.9722894,8.3038589 93.8048985,9.57299507 94.0583424,10.7039313 C94.3612963,11.9016642 95.1145552,12.7608072 96.3334436,13.2825119 C97.4427028,13.7477851 99.3099362,13.9873317 101.915104,13.9873317 L111.198224,13.9873317 L112.127126,11.7692225 L106.895572,11.7692225 C104.376457,11.7692225 102.696654,11.4490593 101.858521,10.8167946 C100.944944,10.1327049 101.048679,8.54340548 101.76068,6.85851781 C103.011396,3.94710562 105.617743,2.13438299 109.22254,2.13438299 L113.276464,2.13438299 L112.346384,4.32370047 L115.425433,4.32370047 L117.263196,0.000345499864 Z M81.1268086,8.4063572 L87.3744959,2.46375953 L88.6723645,8.4063572 L81.1268086,8.4063572 Z M27.9837449,8.42823886 L34.0675778,2.74131109 L35.1674065,8.42823886 L27.9837449,8.42823886 Z M86.8381378,0.0130138282 L86.8416742,0.0245304904 L83.030585,0.0245304904 L68.3874206,13.4103469 L74.1117167,0.027985489 L67.8345592,0.027985489 L60.2512815,5.83123154 L56.3482451,8.96376365 L56.170245,8.96376365 L58.0068293,4.39971044 L55.7682711,0.027985489 L49.4628222,0.027985489 L43.7302745,13.4368352 L40.4284307,0.027985489 L33.5182528,0.027985489 L18.2562137,14 L22.0708394,14 L25.9691605,10.3457631 L35.5870624,10.3457631 L36.3532882,14 L46.5688463,14 L50.2632335,5.36480673 C50.4483065,4.93062856 50.6274854,4.43195709 50.8007704,3.87570231 C50.8184525,4.32370047 50.944585,4.80394528 51.1697375,5.30837508 L54.4197137,12.5108956 L54.9690387,12.5108956 L64.2615894,5.3348634 C64.6116956,5.06422184 65.1374444,4.57706704 65.843551,3.87570231 C65.4816566,4.52524206 65.2317491,5.02045853 65.0855768,5.36480673 L61.3923685,14 L68.1375131,14 L68.1386919,13.9953933 L75.2492673,13.9953933 L79.1075089,10.3250331 L89.0943781,10.3250331 L89.8959681,13.9953933 L93.4052823,13.9953933 L89.9843788,0.0130138282 L86.8381378,0.0130138282 Z M22.6885353,6.93222444 C23.6221519,4.75096863 23.5408141,3.0545643 22.449237,1.84185978 C21.3541236,0.633761918 19.291208,0.027985489 16.2604902,0.027985489 L5.99660097,0.027985489 L5.07005716,2.21499963 L12.1358378,2.21499963 C15.7406355,2.21499963 16.786239,3.97013894 15.5414168,6.87694447 C14.8235222,8.55722547 14.189323,10.1039132 12.6875204,10.7914579 C11.314208,11.422571 9.89727968,11.6079893 7.37227098,11.6079893 L4.10343385,11.6010793 L6.54592593,5.94294317 L3.46687703,5.94294317 L0,14 L9.30080237,14 C11.9083277,14 13.9688857,13.7639084 15.4860128,13.2928769 C17.1493121,12.7700205 18.6393266,11.9143325 19.9560562,10.7212063 C21.1820175,9.58451173 22.0932368,8.32343723 22.6885353,6.93222444 L22.6885353,6.93222444 Z" id="Fill-3"></path>
                <path d="M219.7624,3.76249352 L221.396229,0 L209.839186,0 C206.417104,0 204.496824,0.529766459 202.514068,1.58238938 C200.182384,2.82964389 198.233812,5.35064123 197.759931,7.94649688 L204.350652,7.94649688 L210.948445,7.94649688 C210.918975,8.02365851 210.883611,8.10197182 210.841174,8.17683012 C209.631716,10.6483058 207.671357,11.7009287 204.804493,11.7009287 L198.934025,11.7009287 L199.528145,10.3281426 L196.48446,10.3408109 L194.904856,13.9996545 L202.258266,13.9915928 L208.032072,13.9915928 C210.885969,13.8937012 212.700155,13.480253 214.483693,12.4518151 C216.508887,11.2874806 217.977683,8.50390333 218.387908,6.25124421 L211.170061,6.25124421 L204.019407,6.25124421 C204.061844,6.15680758 204.110175,6.06352262 204.158506,5.97023765 C205.482308,3.43772365 206.999436,2.25956911 210.192829,2.25956911 L217.450755,2.25956911 L216.790622,3.76249352 L219.7624,3.76249352 Z" id="Fill-5"></path>
            </g>
            <polygon id="Fill-8" fill="#231F20" points="152.154109 94 146 107.996545 152.851886 108 159 94"></polygon>
            <polygon id="Fill-9" fill="#231F20" points="161.981743 94 156 108 173.056066 108 174 105.780684 163.514178 105.780684 168.553153 94"></polygon>
            <polygon id="Fill-10" fill="#231F20" points="180.980198 94 175 108 192.04834 108 193 105.780684 182.602796 105.780684 187.630169 94"></polygon>
            <polygon id="Fill-11" fill="#231F20" points="143.142213 94 140.484672 100.101678 131.229631 100.101678 133.885984 94 127.100697 94 121 107.996545 127.76627 108 130.421434 101.954755 139.676475 101.954755 137.040328 107.996545 143.905246 108 150 94"></polygon>
            <g id="Group-17" transform="translate(10.000000, 0.000000)">
                <path d="M117.821405,64.3017729 C125.056384,57.4599103 130.443105,49.8763569 133.963876,41.5135588 C139.466187,28.3872752 138.993213,18.1878536 132.541414,10.9023848 C126.080179,3.64742864 113.904326,0 96.0114942,0 L35.4176625,0 L29.9342233,13.1450606 L71.6586076,13.1450606 C92.9353897,13.1450606 99.1159063,23.7012448 91.7665172,41.1685318 C87.5297967,51.2904983 83.7766662,60.5862777 74.9175326,64.7148665 C66.8120918,68.5172052 58.4377278,69.6320885 43.5337187,69.6320885 L24.2372968,69.5851461 L38.6482799,35.5671235 L20.4759099,35.5671235 L0,84 L54.9169564,84 C70.3139914,84 82.4709731,82.584685 91.4374401,79.7657907 C101.253138,76.6194727 110.055657,71.4698856 117.821405,64.3017729" id="Fill-12" fill="#231F20"></path>
                <g id="Group-16" transform="translate(124.300686, 0.000000)">
                    <mask id="mask-2" fill="white">
                        <use xlink:href="#path-1"></use>
                    </mask>
                    <g id="Clip-15"></g>
                    <path d="M96.3948277,0 L35.5792524,0 C32.9100713,6.12599019 29.9330438,12.9678528 29.9330438,12.9678528 L73.4537882,12.9678528 C83.3732814,12.9678528 96.3948277,16.9556142 94.613801,30.8142001 C94.0783135,34.9991198 91.686312,41.727147 83.4711789,45.2806907 C82.1819986,45.8463473 80.7630746,46.3251603 79.1790224,46.6948321 C76.6112773,47.313299 73.617737,47.6724087 70.1547605,47.6724087 L44.6459758,47.6724087 C30.0958131,47.6724087 13.5570339,51.7704849 2.2610783,78.6720315 L0,83.8450899 L116.516891,83.8450899 L122.568844,69.4431451 L48.1867985,69.4431451 C50.7545436,64.379228 58.8151639,62.4651494 67.6636821,62.1400729 C68.6249647,62.1072132 69.5874268,62.0860891 70.5581454,62.0860891 L88.8248744,62.0860891 C105.035756,61.2481663 133.526286,60.954776 137.426853,29.6289031 C140.550137,4.46774802 116.24443,0 96.3948277,0" id="Fill-14" fill="#231F20" mask="url(#mask-2)"></path>
                </g>
            </g>
        </g>
    </g>
</svg>