<?xml version="1.0" encoding="UTF-8"?>
<svg id="Layer_2" data-name="Layer 2" xmlns="http://www.w3.org/2000/svg" viewBox="0 0 94.69 28.32">
  <defs>
    <style>
      .cls-1 {
        fill: #fff;
      }
    </style>
  </defs>
  <g id="Layer_1-2" data-name="Layer 1">
    <g>
      <path class="cls-1" d="M70.33,0h-4.09c-1.2,0-2.22.25-3.06.74-.84.49-1.45,1.18-1.82,2.06-.24.56-.3,1.08-.2,1.53.12.48.42.83.9,1.04.44.19,1.18.29,2.21.29h3.67l.37-.9h-2.07c-1,0-1.66-.13-1.99-.38-.36-.28-.32-.92-.04-1.6.49-1.18,1.52-1.91,2.95-1.91h1.6l-.37.89h1.22l.73-1.75ZM56.04,3.4l2.47-2.4.51,2.4h-2.98ZM35.04,3.41l2.41-2.3.43,2.3h-2.84ZM58.3,0h0s-1.51,0-1.51,0l-5.79,5.42L53.27.01h-2.48l-3,2.35-1.54,1.27h-.07l.73-1.85L46.02.01h-2.49l-2.27,5.42L39.96.01h-2.73l-6.03,5.65h1.51l1.54-1.48h3.8l.3,1.48h4.04l1.46-3.49c.07-.18.14-.38.21-.6,0,.18.06.38.15.58l1.28,2.91h.22l3.67-2.9c.14-.11.35-.31.62-.59-.14.26-.24.46-.3.6l-1.46,3.49h2.67s2.81,0,2.81,0l1.52-1.49h3.95l.32,1.49h1.39L59.54,0h-1.24ZM32.94,2.8c.37-.88.34-1.57-.1-2.06-.43-.49-1.25-.73-2.45-.73h-4.06l-.37.88h2.79c1.42,0,1.84.71,1.35,1.89-.28.68-.54,1.31-1.13,1.58-.54.26-1.1.33-2.1.33h-1.29s.97-2.29.97-2.29h-1.22l-1.37,3.26h3.68c1.03,0,1.84-.1,2.44-.29.66-.21,1.25-.56,1.77-1.04.48-.46.84-.97,1.08-1.53"/>
      <g>
        <path class="cls-1" d="M0,14.23h2.54v13.69H0v-13.69Z"/>
        <path class="cls-1" d="M7.24,26.26v-4.3h.08c.96,2.13,4.36,5.97,7.38,5.97,1.47,0,2.5-.82,2.5-2.07,0-4.77-9.68-4.68-9.68-8.71,0-2.72,2.84-3.31,5.48-3.31,3.05,0,4.58.78,5.67,1.62v3.17h-.08c-1.7-2.68-3.64-4.4-6.24-4.4-1.21,0-2.8.57-2.8,1.66,0,3.03,9.66,3.33,9.66,8.27,0,2.88-2.13,4.15-5.52,4.15-2.91,0-5.52-1.23-6.46-2.05Z"/>
        <path class="cls-1" d="M26.25,14.23v12.09c0,.65-.22.9-.47,1.02h6.69v.59h-8.76v-13.69h2.54Z"/>
        <path class="cls-1" d="M40.89,14.23h2.64l4.77,13.69h-2.54l-.21-.63c-.98-2.84-2.95-4.75-6.22-4.75h-.7l-1.88,5.38h-.63l4.77-13.69ZM39.33,21.96c2.52,0,3.89.92,5.54,2.48-.35-.49-.76-1.23-1.04-2.03l-2.43-7c-.1-.27-.18-.39-.39-.43.14.16.08.51-.02.8l-2.17,6.18h.51Z"/>
        <path class="cls-1" d="M54.95,14.23l6.53,12.42v-12.42h.59v13.69h-2.56l-6.24-11.85c-.2-.35-.35-.49-.51-.55.14.14.22.35.22.61v11.8h-.59v-13.54l-.08-.16h2.64Z"/>
        <path class="cls-1" d="M66.96,14.23h6.4c3.44,0,5.16,2.54,5.16,6.61,0,4.38-1.88,7.08-5.3,7.08h-6.26v-13.69ZM69.5,15.84v11.5h2.58c2.64,0,3.7-3.03,3.7-6.55,0-3.15-.9-5.97-3.6-5.97h-3.15c.25.12.47.37.47,1.02Z"/>
        <path class="cls-1" d="M82.72,26.26v-4.3h.08c.96,2.13,4.36,5.97,7.38,5.97,1.47,0,2.5-.82,2.5-2.07,0-4.77-9.68-4.68-9.68-8.71,0-2.72,2.84-3.31,5.48-3.31,3.05,0,4.58.78,5.67,1.62v3.17h-.08c-1.7-2.68-3.64-4.4-6.24-4.4-1.21,0-2.8.57-2.8,1.66,0,3.03,9.66,3.33,9.66,8.27,0,2.88-2.13,4.15-5.52,4.15-2.91,0-5.52-1.23-6.46-2.05Z"/>
      </g>
    </g>
  </g>
</svg>