<?xml version="1.0" encoding="UTF-8"?>
<svg id="Design_Convert" xmlns="http://www.w3.org/2000/svg" version="1.1" viewBox="0 0 64 64.3">
  <!-- Generator: Adobe Illustrator 29.1.0, SVG Export Plug-In . SVG Version: 2.1.0 Build 142)  -->
  <path d="M30,30.8c-2.5,0-5-.1-7.4-.3-.9,0-1.7-.3-2.5-.5-.3,0-.6-.1-.8-.2-.6-.1-.9-.6-.9-1.3,0-1.7,0-3.5,0-5.2,0-1.7,0-3.3,0-5,0-.3,0-.3-.3-.4-1.2-.4-2.4-.8-3.6-1.2l-1.3-.4c-.1,0-.2,0-.4-.1l-1.2-.4,1.2-.5c.2,0,.3-.1.4-.2l1.1-.4c5.4-2.1,10.8-4.2,16.2-6.2.2,0,.4-.1.6-.1s.3,0,.4,0c5.4,1.9,10.9,3.9,16.3,5.8l1.7.6c0,0,.1,0,.2,0l1,.5-1.3.5c-.4.1-.7.2-1,.3,0,0-.1,0-.1,0h0s0,0,0,.2c0,.7,0,1.5,0,2.2,0,1.1,0,2.1,0,3.2,0,.2.1.4.3.6.9,1,.9,3,0,4-.3.4-.7.6-1.2.6s-.8-.2-1.1-.5c-.9-1-.9-3.2.1-4.2,0,0,.1-.2.1-.2,0-1.5,0-3,0-4.6v-.7h-.3c-.8.4-1.5.6-2.2.9,0,0,0,.1,0,.2,0,2.5,0,5.1,0,7.6v1c0,.6,0,1.3,0,1.9,0,.8-.4,1-.8,1.1-.4,0-.7.2-1.1.3-.9.2-1.7.4-2.6.5-3.2.4-6.5.6-9.7.6ZM19.9,21.1c0,2.4,0,4.7,0,7.1,0,0,0,.1,0,.1.5,0,.8.1,1.2.2.8.2,1.7.3,2.6.4,1.9.2,3.9.2,5.9.2s4.4,0,6.7-.3c1.3-.1,2.7-.3,4-.6.6-.1,1.3-.2,1.9-.3,0,0,.1,0,.1,0,0,0,0,0,0-.2,0-2.2,0-4.3,0-6.5,0,0,0-3,0-3-.2,0-.4.1-.5.2l-2.5.9c-2.6.9-5.3,1.8-7.9,2.7-.2,0-.4,0-.6,0s-.4,0-.6,0c-2.6-.8-5.2-1.7-7.7-2.6,0,0-2.5-.8-2.5-.8v2.5ZM47.4,23.9c0,.3,0,.7,0,1,.1-.4,0-.7,0-1ZM17.1,15.8c4.5,1.5,9,3,13.4,4.5,0,0,.1,0,.2,0h0c.1,0,.3,0,.4,0,3.2-1.1,6.5-2.2,9.7-3.4l4.9-1.7-1.5-.5c-4.3-1.6-8.7-3.1-13-4.6,0,0-.1,0-.2,0-.2,0-.3,0-.5,0-3.6,1.4-7.2,2.8-10.8,4.2l-3.4,1.3.8.3Z"/>
  <path d="M41.4,55.8c-2.7-.1-5.4-.3-8-.4-1.2,0-1.3-.3-1.4-1.4-.4-3.7-.2-6.6.5-9.3.7-2.5,2-4.6,3.9-6.2,4.5-3.7,9.4-6.4,14.6-8,.1,0,.2,0,.2-.3l.4-2.3c.5-2.8,1.1-5.7,1.7-8.6.2-1.1.7-2.3,1.3-3.3.6-1,1.5-1.6,2.5-1.6s1.6.4,2.3,1.1c.4.5.7,1.2.8,1.9v.5c.2,1.9.3,3.9.2,5.8-.2,4.5-.6,9.1-.9,13.5v1.1c-.2,1.8-1,3.5-2.4,5.1-1.7,2-3.9,3.4-5.6,4.3-.7.4-1.3.7-2,1.1-.8.4-1.7.9-2.5,1.4-.8.5-1.5,1-2,1.5-.9,1-1,2-.4,3.3,0,0,0,.1.1.3l.4.8-3.7-.2ZM52.9,31.8c-.1,0-.3,0-.4,0h-.1c-.2,0-.3,0-.5.1-5.2,1.5-10,4.1-14.6,8-1.5,1.2-2.5,2.8-3.1,4.9-.9,3-.8,6-.6,8.6,0,.3,0,.3.3.3,2,0,4,.2,6,.3h2.7c-.2-1.6.5-3.1,2-4.3.6-.5,1.2-.9,1.8-1.2.6-.3,1.2-.6,1.8-1,.5-.3,1-.5,1.5-.8,1.9-1,3.8-2.2,5.4-3.8,1.8-1.7,2.7-3.6,2.7-5.7,0-.3,0-.6,0-.8,0-.2,0-.3,0-.5l.2-3.8c.2-3.7.5-7.4.6-11.1,0-1.2,0-2.4-.2-3.6v-.2c0-.6-.6-1.1-1.2-1.2,0,0-.1,0-.2,0-.4,0-.8.3-1,.8-.5,1-.9,1.8-1.1,2.7-.5,2.5-1,5.1-1.5,7.6l-.5,2.6c0,.1,0,.3,0,.4,0,0,.3,0,.3,0,1.2,0,2,.5,2.4,1.5.6,1.5.5,2.8-.3,4-.6.9-1.3,1.6-1.9,2-1.4,1-2.9,2-4.7,3.1-1,.6-2,1.1-2.9,1.6-.4.2-.9.5-1.3.7l-.4.2-.8-1.5.8-.4c.6-.3,1.2-.7,1.8-1,1.4-.8,2.8-1.5,4.2-2.4,1.3-.8,2.5-1.8,3.4-2.7.4-.3.7-.9.8-1.5.2-.6,0-1.1-.2-1.5-.2-.3-.6-.5-1.1-.5Z"/>
  <path d="M24.3,55.9c-1.4,0-2.9,0-4.3-.1h-1.7c-.1,0-.3,0-.4,0h-.9c0,0,.5-1,.6-1,.7-1,.7-2,0-3-.5-.6-1.2-1.3-2-1.8-1-.6-2-1.3-2.9-1.9-.8-.5-1.7-1-2.5-1.6-1.7-1.1-3.1-2.3-4.2-3.7-1.5-1.8-2.2-3.9-2.2-6.2,0-2.1,0-4.1,0-6.2,0-2.8,0-5.7,0-8.5,0-1.5.2-3,.4-4.5,0-.4.1-.9.2-1.3,0-.8.5-1.4,1.1-1.9.7-.5,1.3-.8,2-.8,1,0,1.8.5,2.5,1.5.9,1.4,1.2,3,1.4,4.4.5,3.2.9,6.5,1.3,10,0,.3.1.5.4.6,5.4,2.1,10.2,5.1,14.3,9.1,2.2,2.1,3.3,4.9,3.6,8.7.1,2.1,0,4.4-.5,7.1-.1.6-.5.9-1.2.9h-1.2c-1,0-2.1,0-3.1,0h-.5ZM22.4,54.2c2.1,0,4.1,0,6.2,0,0,0,0-.1.1-.2.4-2.2.5-4.3.4-6.2-.3-3.4-1.3-5.9-3.4-7.8-3.8-3.5-8.1-6.3-12.7-8.2-.7-.3-1.4-.4-2.1-.6h-.4c0-.1-.2-.1-.2-.1-.2,0-.4,0-.7.5-.4.9-.4,1.6,0,2.3.4.6.8,1.2,1.4,1.7,1.3,1.1,2.7,2.1,4.1,3.1,1,.7,2,1.3,3,1.9.5.3.9.6,1.4.8l.3.2-.8,1.4-1.1-.6c-2.6-1.6-5.1-3-7.4-5-.8-.7-1.6-1.6-2.2-2.5-.9-1.4-.9-2.9,0-4.5.4-.7,1-1,1.8-1h.7c-.1-.9-.2-1.8-.3-2.7-.3-2.5-.7-5.1-1.1-7.6-.2-1.1-.5-2.2-1.1-3.2-.3-.5-.6-.8-1-.8s-.8.2-1.1.6c-.2.2-.3.5-.3.8v1.1c-.3,1.3-.4,2.6-.4,4,0,3.4,0,6.9,0,10.3v2.9c0,1,0,2.1.2,3.2.2,1.8,1.1,3.3,3,5.1,1.8,1.7,3.9,3,6,4.3l.6.4c.9.5,1.7,1,2.5,1.7,1.7,1.3,2.4,3,2,4.9h2.7Z"/>
</svg>