<?xml version="1.0" encoding="UTF-8"?>
<svg id="Design_Convert" xmlns="http://www.w3.org/2000/svg" version="1.1" viewBox="0 0 64 64.3">
  <!-- Generator: Adobe Illustrator 29.1.0, SVG Export Plug-In . SVG Version: 2.1.0 Build 142)  -->
  <path d="M24.1,35.4c-.6-1.4-1-2.8-1.6-4.1-.3-.5-.9-.9-1.4-1.3-.5-.4-1-.8-1.5-1.2-2-1.7-1.6-4.3.8-5.3.2,0,.3-.1.6-.2-.6-1.3-1.2-2.5-1.9-3.7-.6-1.1-.7-2.1-.3-3.3.5-1.4,0-2.4-1.5-2.9-.4-.1-.8-.2-1.2-.4-.4-.2-.9-.5-1-.9,0-.2.4-.8.8-1,2.6-1.6,5.5-2.7,8.5-3.3,4.5-.9,9.1-.7,13.6-.4,5.1.3,8.3,5.9,6.6,11-.5,1.6-1.2,3.2-1.8,4.9.2,0,.4.1.5.2,1.2.3,2,1.1,2.2,2.3.2,1.2-.1,2.4-1.2,3-2.6,1.4-3.6,3.9-4.5,6.5,0,0,0,0,0,.3,1.9,0,3.9.1,5.9,0,2.9-.2,5.1,1.8,4.7,4.8,0,0,0,0,0,.1-.3,1.5.3,2.5,1.7,3.3,3.1,1.8,4.6,4.8,4.7,8.4,0,1.3,0,2.5,0,3.8,0,1-.4,1.3-1.4,1.3-6.7,0-13.4,0-20.1,0-9,0-18,0-27,0-1.5,0-1.6,0-1.5-1.5,0-1.8,0-3.7.3-5.5.6-3.2,2.5-5.5,5.4-7,.6-.3.9-.7.8-1.4,0-.8,0-1.5,0-2.3,0-2.2,1.7-3.9,3.9-3.9,2.2,0,4.4,0,6.5,0,0,0,0,0,.2,0ZM48.9,55.6c0-.5,0-.8,0-1.2,0-4.8,0-9.6,0-14.4,0-2.2-.9-3.1-3.2-3.1-9.2,0-18.5,0-27.7,0-2.3,0-3.1.9-3.1,3.1,0,4.8,0,9.6,0,14.4,0,.4,0,.7,0,1.1h33.9ZM17.9,11.8c1.9.8,3.1,2.2,2.6,4.1-.6,2.1.4,3.6,1.3,5.2,1.8-1.2,3.5-2.5,5.3-3.5,1.2-.7,2.6-1.4,3.9-1.4,2.6,0,4.7-1.1,6.6-2.8.8-.8,1.4-.6,1.9.3,1.1,1.9,2.2,3.7,3.2,5.5.1-.3.3-.8.5-1.4,1.4-4.2-1.2-8.4-5.5-8.9-2.6-.3-5.2-.2-7.8-.1-4.1,0-8.1,1-12,3ZM31.3,26.6c-.2,2.2-.9,3.1-2.5,3.2-.5,0-1,0-1.5,0-1.5,0-2.5-1-2.5-2.6,0-.7,0-1.5,0-2.2h-1.6c0,3.6,1,6.8,2.7,9.8.2.3.7.6,1.1.6,3.4,0,6.8,0,10.2,0,.4,0,1-.3,1.1-.7.8-1.9,1.6-3.9,2.2-5.9.4-1.2.4-2.6.6-3.9h-1.6c-.1,1.1,0,2.3-.4,3.3-.4,1.2-1.5,1.5-2.7,1.5-2.6,0-3.2-.5-3.6-3.2h-1.4ZM32.8,24.9c-.2-1.4.5-1.6,1.6-1.6,2.1,0,4.3,0,6.3,0,.6-3.3-.4-6.1-2.6-8.5-1.6,1.4-3.3,2.7-5.4,2.7-2.4,0-4.4.9-6.3,2.3-.8.6-1.7,1.2-2.6,1.7-.7.4-.9.9-.6,1.7,2.1,0,4.1,0,6.2,0,1.1,0,2.1,0,1.8,1.6h1.6ZM50.6,55.7c1.5,0,2.9,0,4.2,0,.2,0,.6-.5.6-.8,0-1.3,0-2.7-.2-4-.5-2.8-2-4.9-4.7-6.4v11.2ZM13.5,55.6v-11c-3.6,1.3-5.8,6.3-4.8,11h4.8ZM26.1,25c.2,1.1.2,2.2.8,3,.2.4,1.9.3,2.2,0,.5-.8.5-1.9.7-3h-3.6ZM34.2,25c.2,1.1.2,2.2.7,3,.2.4,1.9.4,2.2,0,.5-.8.5-1.9.7-3h-3.6ZM21.5,25c-.8-.1-1.4.2-1.5,1-.2,1.4,1,1.7,1.9,2.5-.1-1.3-.2-2.4-.3-3.5ZM42.2,28.6c.9-.9,2.2-1.3,1.8-2.6-.1-.5-.8-.8-1.4-1.4-.2,1.5-.3,2.6-.4,4Z"/>
  <path d="M35.2,50c0,1.8-1.4,3.2-3.2,3.2-1.8,0-3.2-1.4-3.2-3.2,0-1.8,1.4-3.2,3.2-3.2,1.8,0,3.2,1.4,3.2,3.2ZM33.6,50c0-.8-.7-1.6-1.6-1.6-.9,0-1.6.7-1.7,1.5,0,.9.8,1.7,1.6,1.7.8,0,1.6-.8,1.6-1.6Z"/>
  <path d="M26.5,38c.5.5.8.8,1.3,1.2-1,.8-2,1.6-3.2,2.5,1.3,1.1,2.2,1.9,3.2,2.7-.5.5-.8.8-1.2,1.3-1.1-1.1-2.1-2.1-3.1-3.2-.5-.5-.4-.9,0-1.4,1-1,1.9-2,3-3.2Z"/>
  <path d="M37.4,45.7c-.4-.4-.6-.8-1.1-1.3.9-.7,1.8-1.5,2.9-2.3-1.2-1-2-1.8-3.1-2.8.7-.4,1.1-.6,1.7-1,.8.9,1.9,1.9,2.9,3,.2.2,0,1-.2,1.3-.9,1-1.9,1.9-3,3Z"/>
  <path d="M30.2,45.6c-.5-.4-.8-.6-1.3-1,1.6-2.2,3.2-4.3,4.8-6.4.4.3.8.6,1.3.9-1.6,2.1-3.2,4.2-4.8,6.4Z"/>
</svg>