<?xml version="1.0" encoding="UTF-8"?>
<svg id="Layer_1" xmlns="http://www.w3.org/2000/svg" version="1.1" viewBox="0 0 316.3 50">
  <!-- Generator: Adobe Illustrator 29.6.0, SVG Export Plug-In . SVG Version: 2.1.1 Build 207)  -->
  <defs>
    <style>
      .st0 {
        fill: #0d251c;
      }

      .st1 {
        fill: #ddd;
      }

      .st2 {
        fill: #231f20;
      }

      .st3 {
        isolation: isolate;
      }

      .st4 {
        fill: #fff;
      }
    </style>
  </defs>
  <path class="st4" d="M291.3,0c13.8,0,25,11.2,25,25s-11.2,25-25,25H25C11.2,50,0,38.8,0,25S11.2,0,25,0h266.3"/>
  <g class="st3">
    <g class="st3">
      <path class="st2" d="M65.7,24.8c0,3.4-2.6,5.6-6.7,5.6h-5.4v-11.2h5.4c4.1,0,6.7,2.2,6.7,5.6ZM64.3,24.8c0-2.9-2.3-4.4-5.4-4.4h-4v8.7h4c3.2,0,5.4-1.5,5.4-4.4Z"/>
      <path class="st2" d="M67.7,24.8c0-3.6,2.6-5.9,6.8-5.9s6.8,2.3,6.8,5.9-2.6,5.9-6.8,5.9-6.8-2.3-6.8-5.9ZM80,24.8c0-3-2.1-4.7-5.4-4.7s-5.4,1.7-5.4,4.7,2.1,4.7,5.4,4.7,5.4-1.7,5.4-4.7Z"/>
      <path class="st2" d="M100.9,19.2l-4.1,11.2h-1.4l-3.6-9.6-3.6,9.6h-1.4l-4.1-11.2h1.5l3.4,9.6,3.6-9.6h1.4l3.6,9.6,3.4-9.6h1.4Z"/>
      <path class="st2" d="M115.1,19.2v11.2h-1.2l-9.4-9.5v9.5h-1.3v-11.2h1.5l9.1,9.2v-9.2h1.3Z"/>
      <path class="st2" d="M128.7,29.2v1.2h-9.9v-11.2h1.3v10h8.6Z"/>
      <path class="st2" d="M129.3,24.8c0-3.6,2.6-5.9,6.8-5.9s6.8,2.3,6.8,5.9-2.6,5.9-6.8,5.9-6.8-2.3-6.8-5.9ZM141.6,24.8c0-3-2.1-4.7-5.4-4.7s-5.4,1.7-5.4,4.7,2.1,4.7,5.4,4.7,5.4-1.7,5.4-4.7Z"/>
      <path class="st2" d="M154.5,27.4h-7.6l-1.6,3h-1.5l6.2-11.2h1.5l6.2,11.2h-1.5l-1.6-3ZM153.8,26.2l-3.1-5.7-3.1,5.7h6.2Z"/>
      <path class="st2" d="M171.9,24.8c0,3.4-2.6,5.6-6.7,5.6h-5.4v-11.2h5.4c4.1,0,6.7,2.2,6.7,5.6ZM170.5,24.8c0-2.9-2.3-4.4-5.4-4.4h-4v8.7h4c3.2,0,5.4-1.5,5.4-4.4Z"/>
      <path class="st2" d="M191.9,27.3c0,2-1.6,3.1-4.2,3.1h-7.8v-11.2h7.5c2.3,0,3.9,1,3.9,2.8s-.8,2.5-2.4,2.6c1.7.1,3,.8,3,2.7ZM181.2,24.1h5.9c1.6,0,2.7-.4,2.7-1.8s-1.1-1.8-2.7-1.8h-5.9v3.6ZM190.5,27.2c0-1.4-1.1-2-3.1-2h-6.2v3.9h6.2c1.9,0,3.1-.6,3.1-2Z"/>
      <path class="st2" d="M205.1,30.4l-3.7-4.3h-5.3v4.3h-1.4v-11.2h7.5c2.5,0,4.3,1.2,4.3,3.5s-1.4,3.2-3.5,3.4l3.8,4.3h-1.8ZM202.2,24.9c1.8,0,3-.7,3-2.2s-1.2-2.2-3-2.2h-6.1v4.4h6.1Z"/>
      <path class="st2" d="M208.6,24.8c0-3.6,2.6-5.9,6.8-5.9s6.8,2.3,6.8,5.9-2.6,5.9-6.8,5.9-6.8-2.3-6.8-5.9ZM220.9,24.8c0-3-2.1-4.7-5.4-4.7s-5.4,1.7-5.4,4.7,2.1,4.7,5.4,4.7,5.4-1.7,5.4-4.7Z"/>
      <path class="st2" d="M235.5,27.4l1.3.6c-1.1,1.7-3,2.8-5.7,2.8-4.2,0-6.7-2.3-6.7-5.9s2.6-5.9,6.8-5.9,4.6,1.1,5.7,2.8l-1.3.6c-.9-1.5-2.5-2.1-4.4-2.1-3.2,0-5.4,1.6-5.4,4.7s2.1,4.7,5.4,4.7,3.6-.6,4.4-2.1Z"/>
      <path class="st2" d="M251.2,19.2v11.2h-1.3v-5h-9.2v5h-1.3v-11.2h1.3v4.9h9.2v-4.9h1.3Z"/>
      <path class="st2" d="M266.6,19.2v5.9c0,3.3-2,5.6-5.9,5.6s-5.9-2.4-5.9-5.6v-5.9h1.3v5.8c0,2.8,1.6,4.5,4.6,4.5s4.6-1.7,4.6-4.5v-5.8h1.3Z"/>
      <path class="st2" d="M280.4,30.4l-3.7-4.3h-5.3v4.3h-1.4v-11.2h7.5c2.5,0,4.3,1.2,4.3,3.5s-1.4,3.2-3.5,3.4l3.8,4.3h-1.8ZM277.5,24.9c1.8,0,3-.7,3-2.2s-1.2-2.2-3-2.2h-6.1v4.4h6.1Z"/>
      <path class="st2" d="M295.7,29.2v1.2h-10.8v-11.2h10.7v1.2h-9.3v3.6h7.9v1.2h-7.9v3.8h9.5Z"/>
    </g>
  </g>
  <g>
    <circle class="st1" cx="26.5" cy="25" r="15.5"/>
    <g>
      <path class="st0" d="M19.2,27.5c.4,0,.8.2.8.6,0,.8-.1,2,0,2.8s0,.1,0,.2c.1.2.3.3.6.3h11.8c.3,0,.4-.3.5-.5.1-.8,0-1.9,0-2.7,0-.8,1.1-.9,1.3,0-.1,1.7.6,4.2-1.7,4.6h-12.1c-2.4-.3-1.7-2.9-1.8-4.6,0-.3.3-.5.5-.5h0Z"/>
      <path class="st0" d="M27.2,26.9s.3-.2.3-.2c.6-.4,1.3-1.2,1.9-1.5s1.5.4.8,1.1-2.1,1.8-3.1,2.4-.5.4-1,.1l-3.2-2.6c-.5-.5,0-1.3.6-1.1.4.3.8.6,1.2.9s1.2,0,1.2-.5v-7.7c0-.3.4-.5.7-.5s.6.3.6.5v9.2h0Z"/>
    </g>
  </g>
</svg>